<svg width="174" height="275" viewBox="0 0 174 275" fill="none" xmlns="http://www.w3.org/2000/svg">
<path d="M77.3379 256C77.3379 256 77.3379 194.623 77.3379 71.8691C77.3379 71.8691 68.0605 71.8691 49.5059 71.8691C49.5059 71.8691 49.5059 59.3691 49.5059 34.3691C49.5059 34.3691 72.1133 34.3691 117.328 34.3691C117.328 34.3691 117.328 108.246 117.328 256C117.328 256 103.998 256 77.3379 256Z" fill="#B6947B"/>
<path d="M10.3672 71C10.3672 71 10.3672 58.6872 10.3672 34.0615C10.3672 34.0615 12.9062 34.0615 17.9844 34.0615C20.8001 34.0615 22.916 34.1999 24.332 34.4766C25.7643 34.737 27.042 35.2415 28.165 35.9902C29.4346 36.8529 30.4193 37.9759 31.1191 39.3594C31.819 40.7266 32.1689 42.2402 32.1689 43.9004C32.1689 45.6419 31.8516 47.0498 31.2168 48.124C30.5983 49.182 29.5485 50.0934 28.0674 50.8584C29.3044 51.363 30.2484 51.8431 30.8994 52.2988C31.5667 52.7546 32.1608 53.3405 32.6816 54.0566C33.8047 55.5866 34.3662 57.5641 34.3662 59.9893C34.3662 61.9424 33.9268 63.7165 33.0479 65.3115C32.1689 66.9066 30.932 68.168 29.3369 69.0957C27.1396 70.3652 24.1042 71 20.2305 71H10.3672ZM17.2275 64.457H20.6211C23.0137 64.457 24.7552 64.0908 25.8457 63.3584C26.9362 62.6097 27.4814 61.4215 27.4814 59.7939C27.4814 58.1663 26.9036 56.9619 25.748 56.1807C24.6087 55.3994 22.8509 55.0088 20.4746 55.0088H17.2275V64.457ZM17.2275 48.2949H19.4248C21.5081 48.2949 23.0137 48.002 23.9414 47.416C24.8691 46.8138 25.333 45.8454 25.333 44.5107C25.333 42.0042 23.5671 40.751 20.0352 40.751H17.2275V48.2949ZM13.6875 117C13.6875 117 13.6875 104.687 13.6875 80.0615C13.6875 80.0615 15.9743 80.0615 20.5479 80.0615C20.5479 80.0615 20.5479 90.1934 20.5479 110.457C20.5479 110.457 24.3158 110.457 31.8516 110.457C31.8516 110.457 31.8516 112.638 31.8516 117C31.8516 117 25.7969 117 13.6875 117ZM21.793 125.402C24.3646 125.402 26.8223 125.907 29.166 126.916C31.5098 127.925 33.528 129.284 35.2207 130.993C36.9134 132.686 38.2562 134.712 39.249 137.072C40.2581 139.432 40.7627 141.906 40.7627 144.494C40.7627 148.042 39.9245 151.281 38.248 154.211C36.5716 157.141 34.2767 159.452 31.3633 161.145C28.4499 162.821 25.2272 163.659 21.6953 163.659C19.026 163.659 16.487 163.163 14.0781 162.17C11.6855 161.177 9.62663 159.834 7.90137 158.142C6.17611 156.433 4.80078 154.398 3.77539 152.038C2.76628 149.662 2.26172 147.163 2.26172 144.543C2.26172 141.89 2.76628 139.383 3.77539 137.023C4.78451 134.647 6.15169 132.613 7.87695 130.92C9.60221 129.227 11.6693 127.884 14.0781 126.892C16.5033 125.899 19.0749 125.402 21.793 125.402ZM21.3535 131.994C17.9844 131.994 15.1035 133.215 12.7109 135.656C10.3346 138.081 9.14648 141.027 9.14648 144.494C9.14648 146.236 9.47201 147.88 10.123 149.426C10.7741 150.972 11.653 152.307 12.7598 153.43C13.8665 154.536 15.193 155.415 16.7393 156.066C18.2855 156.717 19.9212 157.043 21.6465 157.043C25.1458 157.043 28.0511 155.863 30.3623 153.503C32.6898 151.143 33.8535 148.173 33.8535 144.592C33.8535 140.962 32.6654 137.959 30.2891 135.583C27.929 133.19 24.9505 131.994 21.3535 131.994ZM31.7051 198.697C31.7051 198.697 34.3906 198.697 39.7617 198.697C38.3132 202.066 36.0508 204.736 32.9746 206.705C29.9147 208.674 26.4886 209.659 22.6963 209.659C20.9222 209.659 19.1888 209.431 17.4961 208.976C15.8197 208.52 14.2734 207.877 12.8574 207.047C11.4414 206.217 10.1312 205.216 8.92676 204.044C7.73861 202.856 6.72949 201.562 5.89941 200.162C5.06934 198.746 4.41829 197.208 3.94629 195.548C3.49056 193.871 3.2627 192.154 3.2627 190.396C3.2627 187.825 3.76725 185.367 4.77637 183.023C5.78548 180.68 7.13639 178.661 8.8291 176.969C10.5218 175.276 12.54 173.925 14.8838 172.916C17.2275 171.907 19.6852 171.402 22.2568 171.402C24.5843 171.402 26.8223 171.793 28.9707 172.574C31.1354 173.339 33.0804 174.446 34.8057 175.895C35.9775 176.904 36.9215 177.896 37.6377 178.873C38.3538 179.85 39.0618 181.111 39.7617 182.657H32.0957C30.8424 181.03 29.4508 179.85 27.9209 179.117C26.391 178.368 24.5518 177.994 22.4033 177.994C18.5459 177.994 15.4779 179.345 13.1992 182.047C12.2552 183.137 11.5065 184.431 10.9531 185.929C10.416 187.426 10.1475 188.932 10.1475 190.445C10.1475 192.708 10.7008 194.807 11.8076 196.744C12.9144 198.681 14.4199 200.219 16.3242 201.358C18.2285 202.481 20.3037 203.043 22.5498 203.043C24.3239 203.043 25.9108 202.709 27.3105 202.042C28.7266 201.375 30.1914 200.26 31.7051 198.697ZM9.68359 255C9.68359 255 9.68359 242.687 9.68359 218.062C9.68359 218.062 11.9704 218.062 16.5439 218.062C16.5439 218.062 16.5439 223.376 16.5439 234.004C16.5439 234.004 20.3607 228.69 27.9941 218.062C27.9941 218.062 30.7448 218.062 36.2461 218.062C36.2461 218.062 31.6156 224.108 22.3545 236.201C22.3545 236.201 26.985 242.467 36.2461 255C36.2461 255 33.4954 255 27.9941 255C27.9941 255 24.1774 249.58 16.5439 238.74C16.5439 238.74 16.5439 244.16 16.5439 255C16.5439 255 14.2572 255 9.68359 255Z" fill="#B6947B"/>
</svg>
